<svg width="24" height="24" viewBox="0 0 24 24" fill="none" xmlns="http://www.w3.org/2000/svg">
<path d="M6.74987 13.5C8.82096 13.5 10.4999 15.1789 10.4999 17.25C10.4999 20.1495 8.14937 22.5 5.24987 22.5C3.30363 22.4998 1.60585 21.4402 0.700063 19.8701C0.561789 19.6304 0.566496 19.3336 0.712758 19.0986C0.859022 18.8637 1.12313 18.7288 1.39928 18.7471C1.43261 18.7493 1.46617 18.75 1.49987 18.75C2.3283 18.75 2.99987 18.0784 2.99987 17.25C2.99987 15.1791 4.67898 13.5002 6.74987 13.5ZM9.68053 9.80566C11.7404 10.6171 13.3811 12.2578 14.1932 14.3174C13.5881 14.7557 12.9563 15.1596 12.2997 15.5244L11.7967 15.8037C11.3 14.0672 9.93272 12.6997 8.19616 12.2031L8.47545 11.7002C8.8402 11.0437 9.24223 10.4107 9.68053 9.80566ZM20.5995 1.5C21.6493 1.5003 22.5008 2.35145 22.5008 3.40137C22.5008 3.77664 22.3896 4.14378 22.1815 4.45605L18.7948 9.53516C17.9416 10.8149 16.9356 11.9785 15.8055 13.0059C14.8138 10.8935 13.1055 9.18579 10.993 8.19434C12.0208 7.06396 13.1856 6.05846 14.4657 5.20508L19.5448 1.81934C19.857 1.61128 20.2243 1.5 20.5995 1.5Z" fill="#262626"/>
</svg>
